<mxfile host="app.diagrams.net" modified="2022-12-06T09:36:50.979Z" agent="5.0 (Macintosh; Intel Mac OS X 10_15_7) AppleWebKit/537.36 (KHTML, like Gecko) Chrome/105.0.0.0 Safari/537.36" etag="tZIqpi-IikrXuU3_fn4k" version="20.4.0" type="github">
  <diagram name="Page-1" id="74e2e168-ea6b-b213-b513-2b3c1d86103e">
    <mxGraphModel dx="2580" dy="826" grid="1" gridSize="10" guides="1" tooltips="1" connect="1" arrows="1" fold="1" page="1" pageScale="1" pageWidth="1100" pageHeight="850" background="none" math="0" shadow="0">
      <root>
        <mxCell id="0" />
        <mxCell id="1" parent="0" />
        <mxCell id="77e6c97f196da883-1" value="到付转月结数据流向" style="swimlane;html=1;childLayout=stackLayout;startSize=20;rounded=0;shadow=0;labelBackgroundColor=none;strokeWidth=1;fontFamily=Verdana;fontSize=8;align=center;" parent="1" vertex="1">
          <mxGeometry x="-350" y="30" width="950" height="750" as="geometry" />
        </mxCell>
        <mxCell id="77e6c97f196da883-2" value="商家工作台" style="swimlane;html=1;startSize=20;" parent="77e6c97f196da883-1" vertex="1">
          <mxGeometry y="20" width="200" height="730" as="geometry" />
        </mxCell>
        <mxCell id="xuHtTQ8FiB28JN-3W9KX-19" value="到付转月结数据查询" style="rounded=1;whiteSpace=wrap;html=1;hachureGap=4;" vertex="1" parent="77e6c97f196da883-2">
          <mxGeometry x="20" y="52" width="120" height="60" as="geometry" />
        </mxCell>
        <mxCell id="77e6c97f196da883-3" value="订单中心" style="swimlane;html=1;startSize=20;" parent="77e6c97f196da883-1" vertex="1">
          <mxGeometry x="200" y="20" width="220" height="730" as="geometry" />
        </mxCell>
        <mxCell id="xuHtTQ8FiB28JN-3W9KX-24" value="提供数据" style="rounded=1;whiteSpace=wrap;html=1;hachureGap=4;" vertex="1" parent="77e6c97f196da883-3">
          <mxGeometry x="60" y="52" width="120" height="60" as="geometry" />
        </mxCell>
        <mxCell id="xuHtTQ8FiB28JN-3W9KX-26" value="数据源" style="rounded=1;whiteSpace=wrap;html=1;hachureGap=4;" vertex="1" parent="77e6c97f196da883-3">
          <mxGeometry x="60" y="610" width="120" height="60" as="geometry" />
        </mxCell>
        <mxCell id="xuHtTQ8FiB28JN-3W9KX-27" value="" style="edgeStyle=none;curved=1;rounded=0;orthogonalLoop=1;jettySize=auto;html=1;endArrow=open;startSize=14;endSize=14;sourcePerimeterSpacing=8;targetPerimeterSpacing=8;" edge="1" parent="77e6c97f196da883-3" source="xuHtTQ8FiB28JN-3W9KX-24" target="xuHtTQ8FiB28JN-3W9KX-26">
          <mxGeometry relative="1" as="geometry" />
        </mxCell>
        <mxCell id="77e6c97f196da883-6" value="外单" style="swimlane;html=1;startSize=20;" parent="77e6c97f196da883-1" vertex="1">
          <mxGeometry x="420" y="20" width="260" height="730" as="geometry" />
        </mxCell>
        <mxCell id="xuHtTQ8FiB28JN-3W9KX-8" value="更新b商家台账&lt;br&gt;运费应收为0" style="rounded=1;whiteSpace=wrap;html=1;hachureGap=4;" vertex="1" parent="77e6c97f196da883-6">
          <mxGeometry x="74" y="330" width="120" height="60" as="geometry" />
        </mxCell>
        <mxCell id="xuHtTQ8FiB28JN-3W9KX-12" value="更改标位25=5&lt;br&gt;并更新运单结算商家" style="rounded=1;whiteSpace=wrap;html=1;hachureGap=4;" vertex="1" parent="77e6c97f196da883-6">
          <mxGeometry x="74" y="470" width="120" height="60" as="geometry" />
        </mxCell>
        <mxCell id="xuHtTQ8FiB28JN-3W9KX-13" value="" style="edgeStyle=none;curved=1;rounded=0;orthogonalLoop=1;jettySize=auto;html=1;endArrow=open;startSize=14;endSize=14;sourcePerimeterSpacing=8;targetPerimeterSpacing=8;" edge="1" parent="77e6c97f196da883-6" source="xuHtTQ8FiB28JN-3W9KX-8" target="xuHtTQ8FiB28JN-3W9KX-12">
          <mxGeometry relative="1" as="geometry" />
        </mxCell>
        <mxCell id="xuHtTQ8FiB28JN-3W9KX-15" value="外单更新数据库&lt;br&gt;部分数据" style="rounded=1;whiteSpace=wrap;html=1;hachureGap=4;" vertex="1" parent="77e6c97f196da883-6">
          <mxGeometry x="74" y="610" width="120" height="60" as="geometry" />
        </mxCell>
        <mxCell id="xuHtTQ8FiB28JN-3W9KX-16" value="" style="edgeStyle=none;curved=1;rounded=0;orthogonalLoop=1;jettySize=auto;html=1;endArrow=open;startSize=14;endSize=14;sourcePerimeterSpacing=8;targetPerimeterSpacing=8;" edge="1" parent="77e6c97f196da883-6" source="xuHtTQ8FiB28JN-3W9KX-12" target="xuHtTQ8FiB28JN-3W9KX-15">
          <mxGeometry relative="1" as="geometry" />
        </mxCell>
        <mxCell id="xuHtTQ8FiB28JN-3W9KX-28" value="通过binlog同步&lt;br&gt;外单数据" style="edgeStyle=none;orthogonalLoop=1;jettySize=auto;html=1;rounded=0;endArrow=open;startSize=14;endSize=14;sourcePerimeterSpacing=8;targetPerimeterSpacing=8;curved=1;entryX=0;entryY=0.5;entryDx=0;entryDy=0;exitX=0;exitY=0.5;exitDx=0;exitDy=0;" edge="1" parent="77e6c97f196da883-6" target="xuHtTQ8FiB28JN-3W9KX-15">
          <mxGeometry width="120" relative="1" as="geometry">
            <mxPoint x="-40" y="639.5" as="sourcePoint" />
            <mxPoint x="80" y="639.5" as="targetPoint" />
            <Array as="points" />
          </mxGeometry>
        </mxCell>
        <mxCell id="xuHtTQ8FiB28JN-3W9KX-1" value="终端/京管家" style="swimlane;html=1;startSize=20;" vertex="1" parent="77e6c97f196da883-1">
          <mxGeometry x="680" y="20" width="270" height="730" as="geometry" />
        </mxCell>
        <mxCell id="xuHtTQ8FiB28JN-3W9KX-2" value="妥投前操作&lt;br&gt;到付转月结" style="rounded=1;whiteSpace=wrap;html=1;hachureGap=4;" vertex="1" parent="xuHtTQ8FiB28JN-3W9KX-1">
          <mxGeometry x="60" y="52" width="120" height="60" as="geometry" />
        </mxCell>
        <mxCell id="xuHtTQ8FiB28JN-3W9KX-25" value="" style="edgeStyle=none;curved=1;rounded=0;orthogonalLoop=1;jettySize=auto;html=1;endArrow=open;startSize=14;endSize=14;sourcePerimeterSpacing=8;targetPerimeterSpacing=8;" edge="1" parent="77e6c97f196da883-1" source="xuHtTQ8FiB28JN-3W9KX-19" target="xuHtTQ8FiB28JN-3W9KX-24">
          <mxGeometry relative="1" as="geometry" />
        </mxCell>
        <mxCell id="xuHtTQ8FiB28JN-3W9KX-7" value="" style="edgeStyle=none;curved=1;rounded=0;orthogonalLoop=1;jettySize=auto;html=1;endArrow=open;startSize=14;endSize=14;sourcePerimeterSpacing=8;targetPerimeterSpacing=8;" edge="1" parent="1" source="xuHtTQ8FiB28JN-3W9KX-4" target="xuHtTQ8FiB28JN-3W9KX-6">
          <mxGeometry relative="1" as="geometry" />
        </mxCell>
        <mxCell id="xuHtTQ8FiB28JN-3W9KX-4" value="到付转月结接口&lt;br&gt;传结算商家编码" style="rounded=1;whiteSpace=wrap;html=1;hachureGap=4;" vertex="1" parent="1">
          <mxGeometry x="141" y="100" width="120" height="60" as="geometry" />
        </mxCell>
        <mxCell id="xuHtTQ8FiB28JN-3W9KX-5" value="" style="edgeStyle=none;curved=1;rounded=0;orthogonalLoop=1;jettySize=auto;html=1;endArrow=open;startSize=14;endSize=14;sourcePerimeterSpacing=8;targetPerimeterSpacing=8;" edge="1" parent="1" source="xuHtTQ8FiB28JN-3W9KX-2" target="xuHtTQ8FiB28JN-3W9KX-4">
          <mxGeometry relative="1" as="geometry" />
        </mxCell>
        <mxCell id="xuHtTQ8FiB28JN-3W9KX-9" value="" style="edgeStyle=none;curved=1;rounded=0;orthogonalLoop=1;jettySize=auto;html=1;endArrow=open;startSize=14;endSize=14;sourcePerimeterSpacing=8;targetPerimeterSpacing=8;" edge="1" parent="1" source="xuHtTQ8FiB28JN-3W9KX-6" target="xuHtTQ8FiB28JN-3W9KX-8">
          <mxGeometry relative="1" as="geometry" />
        </mxCell>
        <mxCell id="xuHtTQ8FiB28JN-3W9KX-6" value="更新pos直联&lt;br&gt;应收运费为0" style="rounded=1;whiteSpace=wrap;html=1;hachureGap=4;" vertex="1" parent="1">
          <mxGeometry x="143" y="234" width="120" height="60" as="geometry" />
        </mxCell>
      </root>
    </mxGraphModel>
  </diagram>
</mxfile>
